HIERARCHY
ROOT Lex4_Hips
{
  OFFSET -0.563458 94.7827 2.4889
  CHANNELS 6 Xposition Yposition Zposition Zrotation Xrotation Yrotation
  JOINT Lex4_LeftUpLeg
  {
    OFFSET 11.2507 0 0
    CHANNELS 6 Xposition Yposition Zposition Zrotation Xrotation Yrotation
    JOINT Lex4_LeftLeg
    {
      OFFSET 0 -48.2125 0
      CHANNELS 6 Xposition Yposition Zposition Zrotation Xrotation Yrotation
      JOINT Lex4_LeftFoot
      {
        OFFSET 0 -41.8358 0
        CHANNELS 6 Xposition Yposition Zposition Zrotation Xrotation Yrotation
        JOINT Lex4_LeftToeBase
        {
          OFFSET 0 0 13.7184
          CHANNELS 6 Xposition Yposition Zposition Zrotation Xrotation Yrotation
          JOINT Lex4_LeftToeEnd
          {
            OFFSET 0 0 7.5
            CHANNELS 6 Xposition Yposition Zposition Zrotation Xrotation Yrotation
            End Site
            {
              OFFSET 0 0 0
            }
          }
        }
      }
    }
  }
  JOINT Lex4_RightUpLeg
  {
    OFFSET -11.2507 0 0
    CHANNELS 6 Xposition Yposition Zposition Zrotation Xrotation Yrotation
    JOINT Lex4_RightLeg
    {
      OFFSET 0 -48.2125 0
      CHANNELS 6 Xposition Yposition Zposition Zrotation Xrotation Yrotation
      JOINT Lex4_RightFoot
      {
        OFFSET 0 -41.8358 0
        CHANNELS 6 Xposition Yposition Zposition Zrotation Xrotation Yrotation
        JOINT Lex4_RightToeBase
        {
          OFFSET 0 0 13.7184
          CHANNELS 6 Xposition Yposition Zposition Zrotation Xrotation Yrotation
          JOINT Lex4_RightToeEnd
          {
            OFFSET 0 0 7.5
            CHANNELS 6 Xposition Yposition Zposition Zrotation Xrotation Yrotation
            End Site
            {
              OFFSET 0 0 0
            }
          }
        }
      }
    }
  }
  JOINT Lex4_Spine
  {
    OFFSET 0 14.1428 0
    CHANNELS 6 Xposition Yposition Zposition Zrotation Xrotation Yrotation
    JOINT Lex4_Head
    {
      OFFSET 0 48.2444 0
      CHANNELS 6 Xposition Yposition Zposition Zrotation Xrotation Yrotation
      End Site
      {
        OFFSET 0 11.5 0
      }
    }
    JOINT Lex4_LabelingCluster_1
    {
      OFFSET 6.91668 29.7232 -14.2315
      CHANNELS 6 Xposition Yposition Zposition Zrotation Xrotation Yrotation
      End Site
      {
        OFFSET 0 0 0
      }
    }
    JOINT Lex4_LeftShoulder
    {
      OFFSET 0 33.7901 0
      CHANNELS 6 Xposition Yposition Zposition Zrotation Xrotation Yrotation
      JOINT Lex4_LeftArm
      {
        OFFSET 0 19.8458 0
        CHANNELS 6 Xposition Yposition Zposition Zrotation Xrotation Yrotation
        JOINT Lex4_LeftForeArm
        {
          OFFSET 0 31.3007 0
          CHANNELS 6 Xposition Yposition Zposition Zrotation Xrotation Yrotation
          JOINT Lex4_LeftHand
          {
            OFFSET 0 25.4109 0
            CHANNELS 6 Xposition Yposition Zposition Zrotation Xrotation Yrotation
            JOINT Lex4_LeftHandEnd
            {
              OFFSET 0 10 0
              CHANNELS 6 Xposition Yposition Zposition Zrotation Xrotation Yrotation
              End Site
              {
                OFFSET 0 0 0
              }
            }
            JOINT Lex4_LeftHandThumb1
            {
              OFFSET 0 0 0
              CHANNELS 6 Xposition Yposition Zposition Zrotation Xrotation Yrotation
              JOINT Lex4_LeftHandThumb2
              {
                OFFSET 0 0 10
                CHANNELS 6 Xposition Yposition Zposition Zrotation Xrotation Yrotation
                End Site
                {
                  OFFSET 0 0 0
                }
              }
            }
          }
        }
      }
    }
    JOINT Lex4_RightShoulder
    {
      OFFSET 0 33.7901 0
      CHANNELS 6 Xposition Yposition Zposition Zrotation Xrotation Yrotation
      JOINT Lex4_RightArm
      {
        OFFSET 0 19.8458 0
        CHANNELS 6 Xposition Yposition Zposition Zrotation Xrotation Yrotation
        JOINT Lex4_RightForeArm
        {
          OFFSET 0 31.3007 0
          CHANNELS 6 Xposition Yposition Zposition Zrotation Xrotation Yrotation
          JOINT Lex4_RightHand
          {
            OFFSET 0 25.4109 0
            CHANNELS 6 Xposition Yposition Zposition Zrotation Xrotation Yrotation
            JOINT Lex4_RightHandEnd
            {
              OFFSET 0 10 0
              CHANNELS 6 Xposition Yposition Zposition Zrotation Xrotation Yrotation
              End Site
              {
                OFFSET 0 0 0
              }
            }
            JOINT Lex4_RightHandThumb1
            {
              OFFSET 0 0 0
              CHANNELS 6 Xposition Yposition Zposition Zrotation Xrotation Yrotation
              JOINT Lex4_RightHandThumb2
              {
                OFFSET 0 0 10
                CHANNELS 6 Xposition Yposition Zposition Zrotation Xrotation Yrotation
                End Site
                {
                  OFFSET 0 0 0
                }
              }
            }
          }
        }
      }
    }
  }
}
MOTION
Frames:	4
Frame Time:	0.0416667
-0.74867 94.1944 -8.21588 -1.08816 22.4172 178.437 11.2507 0 -7.10543e-015 1.69164 33.6887 14.5576 -3.55271e-015 -48.2125 -8.88178e-016 -1.39507e-015 -6.99795 1.60221e-015 -3.55271e-015 -41.8358 -3.77476e-015 -4.5802 12.6481 -7.00133 -3.55271e-015 8.88178e-016 13.7184 -5.78933e-016 -15.2115 8.24009e-016 0 4.44089e-016 7.5 1.86361e-016 -1.98785e-016 -0 -11.2507 1.42109e-014 0 -14.2728 33.5107 -6.29188 3.55271e-015 -48.2125 8.88178e-016 -1.29868e-015 -3.81241 -1.5938e-015 -3.55271e-015 -41.8358 -2.88658e-015 12.9856 14.9323 -5.50472 0 -1.77636e-015 13.7184 1.26543e-015 -19.399 -3.37199e-015 -3.55271e-015 8.88178e-016 7.5 1.98785e-016 -3.97569e-016 3.18055e-015 0 14.1428 -7.10543e-015 0.893672 22.1503 -3.03856 0 48.2444 0 -3.02967 8.99848 -4.0335 6.83244 29.9364 -15.2483 85.562 -8.05886 -170.226 0 33.7901 -4.44089e-016 -81.384 -15.7681 5.61378 2.84217e-014 19.8458 1.33227e-015 -19.3387 22.6773 -43.1188 -1.42109e-014 31.3007 -1.42109e-014 2.84536e-008 -0.724025 46.7219 -2.84217e-014 25.4109 1.77636e-015 6.07033 -8.36537 -1.60738e-015 2.84217e-014 10 1.77636e-015 1.36664e-016 3.97569e-016 -0 0 0 0 15.0933 -21.7379 36.0619 1.42109e-014 -1.42109e-014 10 -1.59028e-015 4.77083e-015 -1.27222e-014 0 33.7901 -4.44089e-016 69.3989 -12.3002 -11.4653 0 19.8458 3.55271e-015 28.7784 22.7878 -8.24586 -2.84217e-014 31.3007 -3.55271e-015 -0.00177292 14.1915 21.1521 2.84217e-014 25.4109 3.55271e-015 -10.8927 -8.87995 -8.04785e-015 0 10 3.55271e-015 -5.96354e-016 7.95139e-016 -0 0 0 0 -13.7831 -20.2443 -35.3345 0 0 10 7.95139e-016 -3.18055e-015 -9.54166e-015 
-0.735813 94.1995 -8.27886 -1.04451 22.3893 178.369 11.2507 0 0 1.71957 33.6949 14.4527 -3.55271e-015 -48.2125 1.77636e-015 -1.79372e-015 -6.95956 1.60208e-015 -3.55271e-015 -41.8358 -2.9976e-015 -4.53829 12.6184 -6.84697 0 -8.88178e-016 13.7184 8.31332e-016 -15.2568 1.64837e-015 0 8.88178e-016 7.5 -1.2424e-017 0 -0 -11.2507 0 0 -14.2484 33.4942 -6.27573 3.55271e-015 -48.2125 0 5.03282e-016 -3.8031 1.59379e-015 -3.55271e-015 -41.8358 -1.9984e-015 12.9359 14.9595 -5.47349 0 -1.77636e-015 13.7184 -1.73526e-015 -19.4027 6.74413e-015 0 4.44089e-016 7.5 0 0 -0 -4.44089e-016 14.1428 -7.10543e-015 0.938627 22.0588 -2.97102 0 48.2444 0 -3.08624 8.9793 -4.15701 6.8463 29.9264 -15.2311 85.5934 -7.94286 -170.107 8.88178e-016 33.7901 0 -81.3914 -15.696 5.65446 2.84217e-014 19.8458 0 -19.0888 22.6219 -43.4321 0 31.3007 0 -6.00085e-006 -0.775559 46.715 0 25.4109 -1.77636e-015 5.99898 -8.37657 -3.21485e-015 0 10 0 1.73937e-016 0 -7.95139e-016 0 0 0 15.0933 -21.7379 36.0619 -1.42109e-014 -1.42109e-014 10 -1.59028e-015 -1.59028e-015 6.36111e-015 8.88178e-016 33.7901 0 69.3488 -12.3186 -11.4791 0 19.8458 0 28.7029 22.7693 -8.13331 0 31.3007 0 -0.00202837 14.1914 21.1531 -2.84217e-014 25.4109 -3.55271e-015 -10.8442 -8.87562 -0 0 10 0 5.96354e-016 -1.59028e-015 1.59028e-015 0 0 0 -13.7831 -20.2443 -35.3345 0 0 10 -7.95139e-016 0 -6.36111e-015 
-0.725024 94.2025 -8.34865 -1.00921 22.4064 178.317 11.2507 1.42109e-014 0 1.73366 33.7782 14.4477 -7.10543e-015 -48.2125 8.88178e-016 -3.96837e-015 -6.99502 -3.20441e-015 -7.10543e-015 -41.8358 -3.9968e-015 -4.56414 12.6376 -6.80264 -3.55271e-015 -1.77636e-015 13.7184 6.14976e-016 -15.2921 8.24325e-016 3.55271e-015 1.33227e-015 7.5 -3.72721e-017 1.98785e-016 -1.59028e-015 -11.2507 0 -7.10543e-015 -14.2292 33.5462 -6.33307 -3.55271e-015 -48.2125 8.88178e-016 9.29815e-016 -3.82952 7.96918e-015 0 -41.8358 -2.44249e-015 12.9091 15.0152 -5.41594 0 0 13.7184 9.29195e-016 -19.4902 -6.74777e-015 -3.55271e-015 1.11022e-015 7.5 -9.93923e-017 -1.98785e-016 3.18055e-015 4.44089e-016 14.1428 0 0.972902 22.0139 -2.9068 -8.88178e-016 48.2444 0 -3.11246 8.9743 -4.26647 6.85733 29.9147 -15.2187 85.5983 -7.94821 -169.926 0 33.7901 0 -81.3384 -15.6547 5.53789 0 19.8458 -4.44089e-016 -18.9816 22.6 -43.5489 -1.42109e-014 31.3007 -1.42109e-014 6.92843e-007 -0.898934 46.7809 2.84217e-014 25.4109 0 5.95603 -8.36101 -4.0184e-015 -2.84217e-014 10 1.77636e-015 8.69683e-016 -1.98785e-016 3.97569e-016 0 0 0 15.0933 -21.7379 36.0619 1.42109e-014 -1.42109e-014 10 -3.18055e-015 -3.18055e-015 -6.36111e-015 0 33.7901 0 69.3061 -12.3582 -11.3986 2.84217e-014 19.8458 0 28.6948 22.6992 -8.04369 -2.84217e-014 31.3007 0 2.11871e-005 14.1921 21.1448 0 25.4109 -3.55271e-015 -10.7814 -8.88473 -3.21918e-015 0 10 3.55271e-015 -7.95139e-016 -7.95139e-016 -1.59028e-015 0 0 0 -13.7831 -20.2443 -35.3345 -2.84217e-014 1.42109e-014 10 7.95139e-016 0 -6.36111e-015 
-0.707082 94.1962 -8.46732 -0.94542 22.4203 178.231 11.2507 0 0 1.76552 33.8576 14.5069 0 -48.2125 -8.88178e-016 -2.1815e-015 -6.94291 -1.60202e-015 -3.55271e-015 -41.8358 -2.66454e-015 -4.52049 12.5472 -6.79753 0 0 13.7184 -4.35711e-016 -15.3221 -1.64889e-015 0 8.88178e-016 7.5 8.69683e-017 0 -7.95139e-016 -11.2507 -1.42109e-014 -7.10543e-015 -14.2083 33.6214 -6.21731 -3.55271e-015 -48.2125 2.66454e-015 -2.27828e-015 -3.8542 1.59388e-015 3.55271e-015 -41.8358 -3.9968e-015 12.9107 15.0095 -5.45026 -3.55271e-015 -8.88178e-016 13.7184 -1.92109e-015 -19.4945 -3.37397e-015 0 8.88178e-016 7.5 2.98177e-016 1.98785e-016 -3.18055e-015 0 14.1428 0 1.02509 21.9 -2.85298 -8.88178e-016 48.2444 0 -3.12833 9.00574 -4.29189 6.86421 29.9232 -15.1965 85.712 -8.17203 -169.931 -1.77636e-015 33.7901 4.44089e-016 -81.172 -15.6043 5.31217 0 19.8458 -2.22045e-016 -18.9939 22.491 -43.2932 -1.42109e-014 31.3007 0 -5.89192e-006 -0.903461 46.7833 -5.68434e-014 25.4109 0 6.03491 -8.35324 -3.61649e-015 -2.84217e-014 10 0 2.73329e-016 1.98785e-016 -0 0 0 0 15.0933 -21.7379 36.0619 1.42109e-014 -1.42109e-014 10 -1.76556e-031 1.59028e-015 6.36111e-015 -1.77636e-015 33.7901 4.44089e-016 69.2786 -12.325 -11.3153 -2.84217e-014 19.8458 0 28.6195 22.5981 -8.02988 0 31.3007 3.55271e-015 -3.64161e-006 14.1572 21.0483 0 25.4109 7.10543e-015 -10.5266 -8.90243 4.82901e-015 -2.84217e-014 10 7.10543e-015 7.95139e-016 1.59028e-015 1.59028e-015 0 0 0 -13.7831 -20.2443 -35.3345 0 1.42109e-014 10 -1.59028e-015 6.36111e-015 3.18055e-015 
